<svg xmlns="http://www.w3.org/2000/svg" xmlns:xlink="http://www.w3.org/1999/xlink" width="554.605" height="142.459" viewBox="0 0 554.605 142.459">
  <defs>
    <filter id="Path_31546" x="59.478" y="0.498" width="41.345" height="52.484" filterUnits="userSpaceOnUse">
      <feOffset dy="3" input="SourceAlpha"/>
      <feGaussianBlur stdDeviation="3" result="blur"/>
      <feFlood flood-opacity="0.161"/>
      <feComposite operator="in" in2="blur"/>
      <feComposite in="SourceGraphic"/>
    </filter>
    <filter id="blue-x" x="0" y="0" width="65.269" height="54.089" filterUnits="userSpaceOnUse">
      <feOffset dy="3" input="SourceAlpha"/>
      <feGaussianBlur stdDeviation="3" result="blur-2"/>
      <feFlood flood-opacity="0.161"/>
      <feComposite operator="in" in2="blur-2"/>
      <feComposite in="SourceGraphic"/>
    </filter>
  </defs>
  <g id="Group_25050" data-name="Group 25050" transform="translate(-169 -2077.271)">
    <path id="Path_43710" data-name="Path 43710" d="M188.319,29.08h10.54v3.884h-10.54ZM230.007,43,227.9,34.916h-9.073L216.72,43H211.6l8.772-30.53h5.934L235.081,43ZM219.859,31.089h7.009l-2.709-10.32q-.516-2.193-.774-3.87H223.3q-.172,1.161-.731,3.87ZM248.755,43V12.47h8.772q6.02,0,9.18,3.762t3.161,11.373q0,7.74-3.225,11.567T257.4,43Zm5.031-3.827h3.569a5.966,5.966,0,0,0,5.375-2.945q1.849-2.945,1.849-8.622,0-5.891-1.763-8.6A6.013,6.013,0,0,0,257.4,16.3h-3.612Zm27-.172H292.4v4H275.759V12.47H292.1v4H280.79v8.858h10.621v4H280.79Zm27.047,4.73q-5.891,0-8.578-3.784t-2.687-12.255q0-8.3,2.816-12.126t8.492-3.827q4.816,0,7.418,2.709t2.773,8L313,23.177q-.129-3.827-1.4-5.569a4.4,4.4,0,0,0-3.806-1.741,4.807,4.807,0,0,0-4.6,2.752q-1.419,2.752-1.419,9.073,0,6.364,1.419,9.094a4.881,4.881,0,0,0,4.687,2.73q4.816,0,5.246-7.224l4.988.946q-.387,5.117-3.053,7.8A9.717,9.717,0,0,1,307.837,43.731ZM329.079,39h11.61v4H324.048V12.47h16.34v4H329.079v8.858H339.7v4H329.079Zm17.587,4V12.47h5.676l9.374,18.877a21.344,21.344,0,0,1,1.505,4.73h.086q-.172-2.537-.172-5.934V12.47h4.687V43h-5.289l-9.675-19.522a22,22,0,0,1-1.591-4.773h-.086q.172,3.268.172,5.5V43Zm45.967-30.53v4.257h-7.654V43h-4.988V16.727h-7.654V12.47ZM411.51,43l-5.289-12.6h-4.042V43h-5.031V12.47h9.632q9.5,0,9.5,8.9a9.609,9.609,0,0,1-1.311,5.139,7.192,7.192,0,0,1-3.805,3.031L417.014,43Zm-9.331-26.832V26.875h4.042q4.687,0,4.687-5.5a5.849,5.849,0,0,0-1.118-3.913,4.544,4.544,0,0,0-3.612-1.29ZM438.686,43l-2.107-8.084h-9.073L425.4,43h-5.117l8.772-30.53h5.934L443.76,43ZM428.538,31.089h7.009l-2.709-10.32q-.516-2.193-.774-3.87h-.086q-.172,1.161-.731,3.87ZM448.705,43V12.47h5.031V38.657h10.621V43Zm25.714,0h-5.031V12.47h5.031Zm5.5-4.042,12.943-22.317H480.439V12.47H498.37v4.042l-12.9,22.317h13.373V43h-18.92ZM508.905,39h11.61v4H503.874V12.47h16.34v4H508.905v8.858h10.621v4H508.905Zm17.587,4V12.47h8.772q6.02,0,9.18,3.762t3.161,11.373q0,7.74-3.225,11.567T535.135,43Zm5.031-3.827h3.569a5.966,5.966,0,0,0,5.375-2.945q1.849-2.945,1.849-8.622,0-5.891-1.763-8.6a6.013,6.013,0,0,0-5.418-2.709h-3.612ZM13.115,94.731q-11.524,0-11.524-16.039,0-16,11.524-16,11.481,0,11.481,16Q24.6,94.731,13.115,94.731Zm0-4.128a5,5,0,0,0,4.644-2.773q1.548-2.773,1.548-9.137,0-6.321-1.548-9.116a5,5,0,0,0-4.644-2.795,5.091,5.091,0,0,0-4.687,2.795q-1.591,2.8-1.591,9.116t1.569,9.116A5.078,5.078,0,0,0,13.115,90.6ZM44.849,94,39.56,81.4H35.518V94H30.487V63.47h9.632q9.5,0,9.5,8.9a9.609,9.609,0,0,1-1.312,5.138A7.192,7.192,0,0,1,44.5,80.541L50.353,94ZM35.518,67.168V77.875H39.56q4.687,0,4.687-5.5a5.849,5.849,0,0,0-1.118-3.913,4.544,4.544,0,0,0-3.612-1.29ZM63.9,94.731q-10.105,0-10.105-16.125,0-15.867,11.438-15.867,4.9,0,7.46,2.623a10.768,10.768,0,0,1,2.859,7.052l-5.117.9a9.928,9.928,0,0,0-1.462-4.9,4.344,4.344,0,0,0-3.827-1.72,4.909,4.909,0,0,0-4.6,2.795q-1.5,2.8-1.5,9.116,0,6.235,1.483,9.159a4.939,4.939,0,0,0,4.709,2.924q5.633,0,5.633-8v-1.2H64.8V77.531H75.723V94H71.982l-.258-4.988a7.973,7.973,0,0,1-2.816,4.214A8.1,8.1,0,0,1,63.9,94.731ZM98.083,94l-2.107-8.084H86.9L84.8,94H79.679l8.772-30.53h5.934L103.157,94ZM87.935,82.089h7.009l-2.709-10.32q-.516-2.193-.774-3.87h-.086q-.172,1.161-.731,3.87ZM108.1,94V63.47h5.676l9.374,18.877a21.345,21.345,0,0,1,1.5,4.73h.086q-.172-2.537-.172-5.934V63.47h4.687V94h-5.289l-9.675-19.522a22,22,0,0,1-1.591-4.773h-.086q.172,3.268.172,5.5V94Zm33.583,0h-5.031V63.47h5.031Zm5.5-4.042,12.943-22.317H147.705V63.47h17.931v4.042l-12.9,22.317h13.373V94h-18.92ZM187.867,94l-2.107-8.084h-9.073L174.58,94h-5.117l8.772-30.53h5.934L192.941,94ZM177.719,82.089h7.009l-2.709-10.32q-.516-2.193-.774-3.87h-.086q-.172,1.161-.731,3.87ZM212.377,63.47v4.257h-7.654V94h-4.988V67.727h-7.654V63.47ZM221.923,94h-5.031V63.47h5.031Zm17.458.731q-11.524,0-11.524-16.039,0-16,11.524-16,11.481,0,11.481,16Q250.862,94.731,239.381,94.731Zm0-4.128a5,5,0,0,0,4.644-2.773q1.548-2.773,1.548-9.137,0-6.321-1.548-9.116a5,5,0,0,0-4.644-2.795,5.091,5.091,0,0,0-4.687,2.795q-1.591,2.8-1.591,9.116t1.569,9.116A5.078,5.078,0,0,0,239.381,90.6ZM256.753,94V63.47h5.676L271.8,82.347a21.346,21.346,0,0,1,1.5,4.73h.086q-.172-2.537-.172-5.934V63.47h4.687V94H272.62l-9.675-19.522a22,22,0,0,1-1.591-4.773h-.086q.172,3.268.172,5.5V94Zm48.461-30.53a9.614,9.614,0,0,1,6.966,2.408,8.774,8.774,0,0,1,2.494,6.622,9.449,9.449,0,0,1-2.473,6.988,9.329,9.329,0,0,1-6.9,2.472h-4.6V94h-5.031V63.47Zm-.645,14.706a4.347,4.347,0,0,0,3.5-1.44A6.381,6.381,0,0,0,309.3,72.5q0-5.289-4.773-5.289H300.7V78.176ZM333.121,94l-2.107-8.084h-9.073L319.834,94h-5.117l8.772-30.53h5.934L338.195,94ZM322.973,82.089h7.009l-2.709-10.32q-.516-2.193-.774-3.87h-.086q-.172,1.161-.731,3.87ZM357.5,94l-5.289-12.6h-4.042V94H343.14V63.47h9.632q9.5,0,9.5,8.9a9.609,9.609,0,0,1-1.311,5.138,7.192,7.192,0,0,1-3.805,3.032L363.006,94Zm-9.331-26.832V77.875h4.042q4.687,0,4.687-5.5a5.849,5.849,0,0,0-1.118-3.913,4.544,4.544,0,0,0-3.612-1.29Zm36.765-3.7v4.257h-7.654V94h-4.988V67.727H364.64V63.47Zm22.575,31.261q-11.524,0-11.524-16.039,0-16,11.524-16,11.481,0,11.481,16Q418.992,94.731,407.511,94.731Zm0-4.128a5,5,0,0,0,4.644-2.773q1.548-2.773,1.548-9.137,0-6.321-1.548-9.116a5,5,0,0,0-4.644-2.795,5.091,5.091,0,0,0-4.687,2.795q-1.591,2.8-1.591,9.116t1.569,9.116A5.078,5.078,0,0,0,407.511,90.6Zm33.712-23.091H429.914v8.9h10.621v4H429.914V94h-5.031V63.47h16.34ZM469.9,63.47v4.257H462.25V94h-4.988V67.727h-7.654V63.47Zm24.983,0V94h-5.031V80.412H479.45V94h-5.031V63.47h5.031V76.413h10.406V63.47ZM507.357,90h11.61v4H502.326V63.47h16.34v4H507.357v8.858h10.621v4H507.357Zm-495.79,55.73q-9.632,0-10.793-9.589l4.816-1.505a9.952,9.952,0,0,0,1.871,5.332,5.277,5.277,0,0,0,4.236,1.677,4.087,4.087,0,0,0,3.117-1.2,4.622,4.622,0,0,0,1.139-3.311,5.035,5.035,0,0,0-.882-3.182,6.11,6.11,0,0,0-2.945-1.806l-4-1.247a8.89,8.89,0,0,1-4.708-3.246,9.112,9.112,0,0,1-1.612-5.439,7.81,7.81,0,0,1,2.6-6.192,10.032,10.032,0,0,1,6.859-2.279q8.772,0,9.8,8.729l-4.558,1.591q-.774-6.407-5.375-6.407a4.319,4.319,0,0,0-3.161,1.118,4.025,4.025,0,0,0-1.14,3.01q0,3.483,3.741,4.73l4.085,1.376q6.45,2.15,6.45,8.9a8.614,8.614,0,0,1-2.537,6.493A9.666,9.666,0,0,1,11.567,145.731ZM31.175,145V133.089L22.79,114.47h5.418l4.773,11.481a20.181,20.181,0,0,1,.688,2.666h.086a15.138,15.138,0,0,1,.731-2.666l4.73-11.481h5.418l-8.385,18.619V145Zm17.8,0V114.47h5.676l9.374,18.877a21.345,21.345,0,0,1,1.5,4.73h.086q-.172-2.537-.172-5.934V114.47h4.687V145H64.844l-9.675-19.522a22,22,0,0,1-1.591-4.773h-.086q.172,3.268.172,5.5V145Zm45.967-30.53v4.257H87.29V145H82.3V118.727H74.648V114.47Zm24.983,0V145H114.9V131.412H104.49V145H99.459V114.47h5.031v12.943H114.9V114.47ZM132.4,141h11.61v4H127.366V114.47h16.34v4H132.4v8.858h10.621v4H132.4Zm35.475-26.531v4.257h-7.654V145H155.23V118.727h-7.654V114.47ZM177.418,145h-5.031V114.47h5.031Zm4.773,0,8.127-16.125-7.525-14.4h5.633l4.343,8.944a16.885,16.885,0,0,1,.817,2.494h.086a13.665,13.665,0,0,1,.817-2.451l4.386-8.987h5.418l-7.4,14.577L205.024,145h-5.633l-4.859-10.406a10.812,10.812,0,0,1-.989-2.709h-.086a16.259,16.259,0,0,1-.989,2.709L187.7,145Zm56.072-30.53a9.614,9.614,0,0,1,6.966,2.408,8.774,8.774,0,0,1,2.494,6.622,9.45,9.45,0,0,1-2.473,6.988,9.329,9.329,0,0,1-6.9,2.473h-4.6V145h-5.031V114.47Zm-.645,14.706a4.347,4.347,0,0,0,3.5-1.44,6.381,6.381,0,0,0,1.226-4.236q0-5.289-4.773-5.289h-3.827v10.965ZM266.987,145,261.7,132.4h-4.042V145h-5.031V114.47h9.632q9.5,0,9.5,8.9a9.609,9.609,0,0,1-1.311,5.139,7.192,7.192,0,0,1-3.806,3.031L272.491,145Zm-9.331-26.832v10.707H261.7q4.687,0,4.687-5.5a5.849,5.849,0,0,0-1.118-3.913,4.544,4.544,0,0,0-3.612-1.29Zm29.8,27.563q-11.524,0-11.524-16.039,0-16,11.524-16,11.481,0,11.481,16Q298.936,145.731,287.455,145.731Zm0-4.128a5,5,0,0,0,4.644-2.773q1.548-2.773,1.548-9.137,0-6.321-1.548-9.116a5,5,0,0,0-4.644-2.795,5.091,5.091,0,0,0-4.687,2.795q-1.591,2.8-1.591,9.116t1.569,9.116A5.078,5.078,0,0,0,287.455,141.6Zm33.583-27.133v4.257h-7.654V145H308.4V118.727h-7.654V114.47Zm13.287,31.261q-11.524,0-11.524-16.039,0-16,11.524-16,11.481,0,11.481,16Q345.806,145.731,334.325,145.731Zm0-4.128a5,5,0,0,0,4.644-2.773q1.548-2.773,1.548-9.137,0-6.321-1.548-9.116a5,5,0,0,0-4.644-2.795,5.091,5.091,0,0,0-4.687,2.795q-1.591,2.8-1.591,9.116t1.569,9.116A5.078,5.078,0,0,0,334.325,141.6Zm27.219,4.128q-5.891,0-8.578-3.784t-2.687-12.255q0-8.3,2.816-12.126t8.492-3.827q4.816,0,7.418,2.709t2.773,8l-5.074.731q-.129-3.827-1.4-5.569a4.4,4.4,0,0,0-3.806-1.741,4.807,4.807,0,0,0-4.6,2.752q-1.419,2.752-1.419,9.073,0,6.364,1.419,9.094a4.881,4.881,0,0,0,4.687,2.73q4.816,0,5.246-7.224l4.988.946q-.387,5.117-3.053,7.8A9.717,9.717,0,0,1,361.544,145.731Zm26.144,0q-11.524,0-11.524-16.039,0-16,11.524-16,11.481,0,11.481,16Q399.169,145.731,387.688,145.731Zm0-4.128a5,5,0,0,0,4.644-2.773q1.548-2.773,1.548-9.137,0-6.321-1.548-9.116a5,5,0,0,0-4.644-2.795A5.091,5.091,0,0,0,383,120.576q-1.591,2.8-1.591,9.116t1.569,9.116A5.078,5.078,0,0,0,387.688,141.6ZM405.06,145V114.47h5.031v26.187h10.621V145Z" transform="translate(176 2074)" fill="#fff"/>
    <g id="Group_22945" data-name="Group 22945" transform="translate(-657 848)">
      <g id="Group_1596" data-name="Group 1596" transform="translate(832.999 1235.272)">
        <g transform="matrix(1, 0, 0, 1, -7, -6)" filter="url(#Path_31546)">
          <path id="Path_31546-2" data-name="Path 31546" d="M-2.25-9.207V-22.617H-17.529l-.016,13.411ZM-2.233.348V-3.483H-17.126q-4.444,0-4.444-6.442V-21.9q0-6.49,4.444-6.49H.584q1.191,0,1.191,1.676V-.37Q1.775,6.1-2.652,6.1h-16.1q-1.208,0-1.208-1.676V2.025q0-1.676,1.208-1.676Z" transform="translate(90.05 34.89)" fill="#00d1ff"/>
        </g>
        <g transform="matrix(1, 0, 0, 1, -7, -6)" filter="url(#blue-x)">
          <path id="blue-x-2" data-name="blue-x" d="M11.421,8.409A1.514,1.514,0,0,0,10.2,7.8H.3A.275.275,0,0,1,.083,7.7.286.286,0,0,1,0,7.506V.289A.287.287,0,0,1,.083.09.274.274,0,0,1,.3,0H10.761a8.6,8.6,0,0,1,6.833,3.5l2.542,3.356-4.951,6.532-3.763-4.98ZM29.708,3.465A8.657,8.657,0,0,1,36.574,0H47.005a.258.258,0,0,1,.2.072.314.314,0,0,1,.066.217V7.507a.329.329,0,0,1-.066.2.23.23,0,0,1-.2.09H37.1a1.514,1.514,0,0,0-1.222.614l-7.295,9.6,7.328,9.672a1.514,1.514,0,0,0,1.189.578h9.9a.23.23,0,0,1,.2.09.392.392,0,0,1,.066.234V35.8a.328.328,0,0,1-.066.2.23.23,0,0,1-.2.09H36.574a8.536,8.536,0,0,1-6.833-3.5l-6.073-8.011-6.074,8.011a8.627,8.627,0,0,1-6.866,3.5H.3A.229.229,0,0,1,.1,36a.384.384,0,0,1-.066-.235V28.546a.326.326,0,0,1,.066-.2.229.229,0,0,1,.2-.09h9.9a1.575,1.575,0,0,0,1.222-.614l7.163-9.455L29.708,3.465Z" transform="translate(9 6)" fill="#fff"/>
        </g>
      </g>
      <path id="Path_42892" data-name="Path 42892" d="M-55.26-17.5V3.369l17.211.035.017-20.872Zm16.349-6.911q4.307,0,4.307,8.682V1.632q0,8.682-4.307,8.682H-57.862q-.861,0-.861-1.736V-22.678q0-1.736.861-1.736ZM-25.726,3.369l-2.326,6.946h-3.876L-22-19.2q1.706-5.209,3.859-5.209t3.894,5.209l9.889,29.519H-8.24l-2.326-6.946Zm12.818-6.946L-18.146-19.2-23.383-3.577ZM1.775-17.5V3.369L18.986,3.4,19-17.468Zm16.349-6.911q4.307,0,4.307,8.682V1.632q0,8.682-4.307,8.682H2.619q-4.307,0-4.307-8.682V-15.732q0-8.682,4.324-8.682Z" transform="translate(982.585 1259.686)" fill="#fff"/>
    </g>
  </g>
</svg>
