<svg xmlns="http://www.w3.org/2000/svg" width="101.157" height="71.405" viewBox="0 0 101.157 71.405">
  <path id="blue-x" d="M24.441,16.638a3.337,3.337,0,0,0-2.614-1.214H.635a.612.612,0,0,1-.458-.179A.545.545,0,0,1,0,14.852V.571A.547.547,0,0,1,.177.179.61.61,0,0,1,.635,0H23.028Q31.5,0,37.651,6.926l5.439,6.64-10.6,12.924-8.054-9.853ZM63.577,6.855A19.08,19.08,0,0,1,78.27,0h22.323a.578.578,0,0,1,.424.142.591.591,0,0,1,.141.429V14.852a.619.619,0,0,1-.141.392.508.508,0,0,1-.424.179H79.4a3.337,3.337,0,0,0-2.614,1.215L61.175,35.632,76.857,54.767A3.345,3.345,0,0,0,79.4,55.911h21.192a.508.508,0,0,1,.424.179.733.733,0,0,1,.141.463V70.834a.618.618,0,0,1-.141.392.508.508,0,0,1-.424.179H78.27q-8.547,0-14.623-6.926l-13-15.851-13,15.851Q31.5,71.406,22.958,71.405H.635a.506.506,0,0,1-.424-.179.719.719,0,0,1-.14-.465V56.48a.613.613,0,0,1,.14-.392.508.508,0,0,1,.424-.179H21.827a3.475,3.475,0,0,0,2.614-1.214L39.769,35.987,63.577,6.855Z" fill="#00d1ff"/>
</svg>
