<svg xmlns="http://www.w3.org/2000/svg" xmlns:xlink="http://www.w3.org/1999/xlink" width="112" height="112" viewBox="0 0 112 112">
  <defs>
    <filter id="blue-x" x="12.834" y="24.95" width="85.091" height="65.55" filterUnits="userSpaceOnUse">
      <feOffset dy="3" input="SourceAlpha"/>
      <feGaussianBlur stdDeviation="3" result="blur"/>
      <feFlood flood-opacity="0.161"/>
      <feComposite operator="in" in2="blur"/>
      <feComposite in="SourceGraphic"/>
    </filter>
  </defs>
  <g id="Group_25051" data-name="Group 25051" transform="translate(-137 -1219)">
    <g id="Group_25050" data-name="Group 25050" transform="translate(158.834 1249.95)">
      <g transform="matrix(1, 0, 0, 1, -21.83, -30.95)" filter="url(#blue-x)">
        <path id="blue-x-2" data-name="blue-x" d="M16.21,11.079a2.209,2.209,0,0,0-1.734-.809H.421a.4.4,0,0,1-.3-.119A.364.364,0,0,1,0,9.89V.38A.365.365,0,0,1,.117.119.4.4,0,0,1,.421,0H15.273a12.539,12.539,0,0,1,9.7,4.612l3.608,4.422-7.027,8.607L16.21,11.079ZM42.166,4.565A12.634,12.634,0,0,1,51.911,0H66.716A.383.383,0,0,1,67,.095a.4.4,0,0,1,.093.286v9.51a.413.413,0,0,1-.093.261.337.337,0,0,1-.281.119H52.661a2.21,2.21,0,0,0-1.734.809L40.573,23.728l10.4,12.743a2.215,2.215,0,0,0,1.687.762H66.716a.336.336,0,0,1,.281.119.489.489,0,0,1,.093.308v9.51a.412.412,0,0,1-.093.261.336.336,0,0,1-.281.119H51.911a12.443,12.443,0,0,1-9.7-4.612l-8.62-10.556L24.971,42.938a12.581,12.581,0,0,1-9.745,4.612H.421a.335.335,0,0,1-.281-.119.48.48,0,0,1-.093-.309v-9.51A.409.409,0,0,1,.14,37.35a.336.336,0,0,1,.281-.119H14.476a2.3,2.3,0,0,0,1.734-.809L26.376,23.965l15.79-19.4Z" transform="translate(21.83 30.95)" fill="#fff"/>
      </g>
    </g>
    <g id="Ellipse_2883" data-name="Ellipse 2883" transform="translate(137 1219)" fill="none" stroke="#00dbff" stroke-width="4">
      <circle cx="56" cy="56" r="56" stroke="none"/>
      <circle cx="56" cy="56" r="54" fill="none"/>
    </g>
  </g>
</svg>
