<svg xmlns="http://www.w3.org/2000/svg" width="323.705" height="73.206" viewBox="0 0 323.705 73.206">
  <g id="Group_18368" data-name="Group 18368" transform="translate(-349 -52.002)">
    <g id="Group_9789" data-name="Group 9789" transform="translate(349 52.002)">
      <path id="Path_8" data-name="Path 8" d="M31.239,12.951A6.407,6.407,0,0,0,26.261,10.6H7.048a1.186,1.186,0,0,1-.919-.433,1.531,1.531,0,0,1-.384-1.054V7.3a1.5,1.5,0,0,1,.384-1.028,1.189,1.189,0,0,1,.919-.433H31.82a.189.189,0,0,0,.151-.068.221.221,0,0,0,.058-.148V.215a.212.212,0,0,0-.058-.162A.215.215,0,0,0,31.82,0H7.048A6.4,6.4,0,0,0,2.059,2.352,8.321,8.321,0,0,0,0,8.03v.352a8.363,8.363,0,0,0,2.059,5.705,6.4,6.4,0,0,0,4.989,2.352H26.261a1.177,1.177,0,0,1,.9.419A1.483,1.483,0,0,1,27.54,17.9V19.71a1.483,1.483,0,0,1-.384,1.042,1.179,1.179,0,0,1-.9.419H1.466a.167.167,0,0,0-.128.068.261.261,0,0,0-.059.176v5.407a.221.221,0,0,0,.058.148.168.168,0,0,0,.128.068h24.8a6.391,6.391,0,0,0,4.978-2.366,8.349,8.349,0,0,0,2.07-5.692v-.352a8.3,8.3,0,0,0-2.07-5.678ZM72.951,0H67.577a.185.185,0,0,0-.128.054.212.212,0,0,0-.058.162V7.083A1.475,1.475,0,0,1,66.6,8.435L55.878,13.6,45.155,8.435a1.474,1.474,0,0,1-.791-1.352V.215a.244.244,0,0,0-.046-.162A.178.178,0,0,0,44.178,0H38.8a.185.185,0,0,0-.128.054.212.212,0,0,0-.058.162V8.083a6.351,6.351,0,0,0,.837,3.218,5.234,5.234,0,0,0,2.28,2.163l11.258,5.489v7.841a.26.26,0,0,0,.058.176.189.189,0,0,0,.151.068h5.373a.168.168,0,0,0,.128-.068.261.261,0,0,0,.058-.176V18.953L70.02,13.491A5.429,5.429,0,0,0,72.3,11.315a6.275,6.275,0,0,0,.837-3.2V.215a.211.211,0,0,0-.058-.162A.185.185,0,0,0,72.951,0Zm39.911,0h-5.373a.159.159,0,0,0-.14.068.256.256,0,0,0-.046.148V21.2h-2.256a1.277,1.277,0,0,1-1.07-.649L93.556,2.838A5.438,5.438,0,0,0,88.927,0H79.949A.19.19,0,0,0,79.8.067a.221.221,0,0,0-.058.148V26.821a.219.219,0,0,0,.058.148.189.189,0,0,0,.151.068h5.373a.169.169,0,0,0,.128-.068.222.222,0,0,0,.058-.148V5.839h2.256a1.272,1.272,0,0,1,1.07.676l10.42,17.71a5.368,5.368,0,0,0,4.629,2.811h8.979a.159.159,0,0,0,.14-.067.258.258,0,0,0,.046-.148V.215A.259.259,0,0,0,113,.067a.161.161,0,0,0-.14-.068ZM151.7,0H118.785a.158.158,0,0,0-.139.068.253.253,0,0,0-.046.148V5.623a.251.251,0,0,0,.046.148.157.157,0,0,0,.139.068h13.584V26.821a.253.253,0,0,0,.046.148.158.158,0,0,0,.14.068h5.373a.158.158,0,0,0,.139-.068.254.254,0,0,0,.046-.148V5.839H151.7a.189.189,0,0,0,.151-.068.221.221,0,0,0,.058-.148V.215a.221.221,0,0,0-.058-.148A.186.186,0,0,0,151.7,0Zm39.911,0h-5.373a.168.168,0,0,0-.128.068.223.223,0,0,0-.058.148V10.6H164.278V.215a.221.221,0,0,0-.058-.148.191.191,0,0,0-.15-.068H158.7a.167.167,0,0,0-.127.068.223.223,0,0,0-.058.148V26.821a.221.221,0,0,0,.058.148.168.168,0,0,0,.127.068h5.374a.189.189,0,0,0,.15-.068.221.221,0,0,0,.058-.148V16.438H186.05V26.82a.221.221,0,0,0,.058.148.169.169,0,0,0,.128.068h5.373a.19.19,0,0,0,.151-.068.224.224,0,0,0,.058-.148V.215a.227.227,0,0,0-.058-.148A.191.191,0,0,0,191.609,0Zm39.768,0H205.3a6.406,6.406,0,0,0-4.978,2.352,8.3,8.3,0,0,0-2.07,5.678V18.98a8.335,8.335,0,0,0,2.07,5.705,6.408,6.408,0,0,0,4.978,2.352h26.074a.169.169,0,0,0,.128-.068.225.225,0,0,0,.058-.148V21.414a.211.211,0,0,0-.058-.162.187.187,0,0,0-.128-.054H205.3a1.151,1.151,0,0,1-.907-.432,1.522,1.522,0,0,1-.373-1.028v-3.3h27.338a.159.159,0,0,0,.139-.068.259.259,0,0,0,.046-.148V10.814a.247.247,0,0,0-.046-.163.176.176,0,0,0-.139-.054H204.023V7.3a1.523,1.523,0,0,1,.373-1.028,1.154,1.154,0,0,1,.907-.433h26.074a.169.169,0,0,0,.128-.068.224.224,0,0,0,.058-.148V.215a.224.224,0,0,0-.058-.148A.171.171,0,0,0,231.378,0ZM271.1,0H238.186a.158.158,0,0,0-.139.068A.253.253,0,0,0,238,.215V5.623a.251.251,0,0,0,.046.148.157.157,0,0,0,.139.068H251.77V26.821a.253.253,0,0,0,.046.148.159.159,0,0,0,.14.068h5.373a.158.158,0,0,0,.139-.068.252.252,0,0,0,.046-.148V5.839H271.1a.189.189,0,0,0,.151-.068.223.223,0,0,0,.058-.148V.215a.223.223,0,0,0-.058-.148A.188.188,0,0,0,271.1,0Zm12.51.054A.177.177,0,0,0,283.47,0H278.1a.175.175,0,0,0-.14.054.244.244,0,0,0-.046.162V26.821a.253.253,0,0,0,.046.148.158.158,0,0,0,.14.068h5.373a.159.159,0,0,0,.14-.068.259.259,0,0,0,.046-.148V.215a.248.248,0,0,0-.046-.162ZM298.445,6.57a1.047,1.047,0,0,0-.861-.46h-6.977a.188.188,0,0,1-.151-.068.22.22,0,0,1-.058-.148V.487a.218.218,0,0,1,.058-.148.191.191,0,0,1,.151-.068h7.373a5.95,5.95,0,0,1,4.815,2.623l1.791,2.515L301.1,10.3l-2.652-3.73Zm12.885-3.7a5.984,5.984,0,0,1,4.838-2.6h7.35a.175.175,0,0,1,.14.054.244.244,0,0,1,.046.162V5.894a.256.256,0,0,1-.046.148.158.158,0,0,1-.14.068h-6.978a1.048,1.048,0,0,0-.861.46l-5.14,7.192,5.164,7.246a1.045,1.045,0,0,0,.837.433h6.978a.159.159,0,0,1,.14.068.306.306,0,0,1,.046.175v5.407a.256.256,0,0,1-.046.148.159.159,0,0,1-.14.068h-7.35a5.907,5.907,0,0,1-4.815-2.623l-4.28-6-4.28,6a5.967,5.967,0,0,1-4.838,2.623h-7.35a.158.158,0,0,1-.14-.068.3.3,0,0,1-.046-.176V21.656a.256.256,0,0,1,.046-.148.157.157,0,0,1,.14-.068h6.977a1.09,1.09,0,0,0,.861-.46l5.047-7.084,7.839-11.03Z" transform="translate(0 0.001)" fill="#00d1ff"/>
    </g>
    <path id="Path_42896" data-name="Path 42896" d="M20.3-6.346V-16.494H3.4L3.383-6.346ZM20.314.4V-2.98H4.246Q0-2.98,0-7.191v-8.457q0-4.246,4.246-4.246H22.852a.74.74,0,0,1,.829.846V-.442q0,4.229-4.229,4.229H2.537a.748.748,0,0,1-.846-.846V1.249A.748.748,0,0,1,2.537.4ZM34.4-3.825a.757.757,0,0,1-.846.846H31.864a.748.748,0,0,1-.846-.846V-19.049a.748.748,0,0,1,.846-.846H48.779q4.229,0,4.229,4.229v1.691a.748.748,0,0,1-.846.846H50.487a.755.755,0,0,1-.863-.846v-2.537l-15.206-.017ZM62.037-19.894H79.8q4.229,0,4.229,4.246V-3.825a.748.748,0,0,1-.846.846H64.574q-4.229,0-4.229-4.212V-8.917q0-4.212,4.212-4.212H80.643v-3.383H62.037a.748.748,0,0,1-.846-.846v-1.691A.748.748,0,0,1,62.037-19.894ZM63.728-9.746v3.383H80.643V-9.746Zm31.018,5.92a.757.757,0,0,1-.846.846H92.21a.748.748,0,0,1-.846-.846V-19.049a.748.748,0,0,1,.846-.846h18.606q4.229,0,4.229,4.229v11.84a.748.748,0,0,1-.846.846h-1.675a.755.755,0,0,1-.863-.846V-16.511l-16.9-.017Zm34.4-16.069h16.1a.725.725,0,0,1,.812.829l-.017,1.708a.74.74,0,0,1-.829.846H129.148l.017,10.166,16.052-.017a.748.748,0,0,1,.846.846l-.017,1.691a.74.74,0,0,1-.829.846H130.011q-4.246,0-4.246-4.229v-9.3h-2.537a.748.748,0,0,1-.846-.846v-1.691a.748.748,0,0,1,.846-.846h2.537v-5.92a.748.748,0,0,1,.846-.846H128.3a.748.748,0,0,1,.846.846ZM157.663-9.746q-4.246,0-4.246-4.229l-.017-1.691q0-4.229,4.246-4.229h18.64a.725.725,0,0,1,.812.829l-.017,1.708a.74.74,0,0,1-.829.846H156.784l.034,3.4,16.035-.017q4.246,0,4.246,4.229v1.691q0,4.229-4.229,4.229H154.23a.725.725,0,0,1-.812-.829l.017-1.708a.74.74,0,0,1,.829-.846h19.452l-.017-3.4Z" transform="translate(351.168 121.422)" fill="#172447"/>
    <path id="Path_42897" data-name="Path 42897" d="M5.114-13.98V1.31l25.416.025.025-15.29Zm24.144-5.063q6.36,0,6.36,6.36V.038q0,6.36-6.36,6.36H1.272A1.124,1.124,0,0,1,0,5.127v-22.9a1.124,1.124,0,0,1,1.272-1.272ZM55.814,1.31,52.38,6.4H46.655L61.31-15.227q2.519-3.816,5.7-3.816t5.75,3.816L87.362,6.4H81.638L78.2,1.31ZM74.743-3.778,67.009-15.227,59.274-3.778Zm28.77-10.2V1.31l25.416.025.025-15.29Zm24.144-5.063q6.36,0,6.36,6.36V.038q0,6.36-6.36,6.36h-22.9Q98.4,6.4,98.4.038V-12.683q0-6.36,6.386-6.36Z" transform="translate(538.688 112.805)" fill="#172447"/>
  </g>
</svg>
