<svg xmlns="http://www.w3.org/2000/svg" xmlns:xlink="http://www.w3.org/1999/xlink" width="227.235" height="59.9" viewBox="0 0 227.235 59.9">
  <defs>
    <filter id="blue-x" x="0" y="0" width="77.119" height="59.9" filterUnits="userSpaceOnUse">
      <feOffset dy="3" input="SourceAlpha"/>
      <feGaussianBlur stdDeviation="3" result="blur"/>
      <feFlood flood-opacity="0.161"/>
      <feComposite operator="in" in2="blur"/>
      <feComposite in="SourceGraphic"/>
    </filter>
  </defs>
  <g id="Group_22951" data-name="Group 22951" transform="translate(-843.46 -1223)">
    <g id="Group_1596" data-name="Group 1596" transform="translate(852.46 1229)">
      <g transform="matrix(1, 0, 0, 1, -9, -6)" filter="url(#blue-x)">
        <path id="blue-x-2" data-name="blue-x" d="M14.284,9.763a1.947,1.947,0,0,0-1.528-.713H.371a.357.357,0,0,1-.268-.1.32.32,0,0,1-.1-.23V.335A.321.321,0,0,1,.1.105.356.356,0,0,1,.371,0H13.458A11.049,11.049,0,0,1,22,4.064l3.179,3.9-6.192,7.584L14.284,9.763Zm22.872-5.74A11.133,11.133,0,0,1,45.743,0H58.789a.337.337,0,0,1,.248.083.348.348,0,0,1,.082.252v8.38a.364.364,0,0,1-.082.23.3.3,0,0,1-.248.1H46.4a1.947,1.947,0,0,0-1.528.713L35.753,20.908l9.165,11.229a1.952,1.952,0,0,0,1.487.671H58.789a.3.3,0,0,1,.248.1.431.431,0,0,1,.082.272v8.38a.363.363,0,0,1-.082.23.3.3,0,0,1-.248.105H45.743A10.965,10.965,0,0,1,37.2,37.836l-7.6-9.3-7.6,9.3A11.086,11.086,0,0,1,13.417,41.9H.371A.3.3,0,0,1,.123,41.8a.423.423,0,0,1-.082-.273v-8.38a.361.361,0,0,1,.082-.23.3.3,0,0,1,.248-.1H12.756a2.027,2.027,0,0,0,1.528-.713l8.958-10.977L37.156,4.023Z" transform="translate(9 6)" fill="#fff"/>
      </g>
    </g>
    <path id="Path_42892" data-name="Path 42892" d="M-54.115-16.076V9.106l22.9.042.023-25.182Zm21.755-8.338q5.731,0,5.731,10.475V7.011q0,10.475-5.731,10.475H-57.577q-1.146,0-1.146-2.1v-37.71q0-2.1,1.146-2.1Zm17.544,33.52-3.095,8.38h-5.158l13.2-35.615q2.27-6.285,5.135-6.285T.452-18.129L13.611,17.486H8.453L5.358,9.106ZM2.24.726-4.729-18.129-11.7.726Zm19.539-16.8V9.106l22.9.042L44.7-16.034Zm21.755-8.338q5.731,0,5.731,10.475V7.011q0,10.475-5.731,10.475H22.9q-5.731,0-5.731-10.475v-20.95q0-10.475,5.754-10.475Z" transform="translate(1021.43 1251.414)" fill="#fff"/>
    <path id="Path_42895" data-name="Path 42895" d="M12.119,3.725V-13.155H-9.735L-9.758,3.725Zm.023,12.027V10.93h-21.3q-6.356,0-6.356-8.109V-12.251q0-8.169,6.356-8.169H16.173q1.7,0,1.7,2.11V14.848q0,8.139-6.333,8.139H-11.485q-1.727,0-1.727-2.11V17.863q0-2.11,1.727-2.11Z" transform="translate(937.637 1247.421)" fill="#40e2fe"/>
  </g>
</svg>
